<?xml version="1.0" standalone="no"?>
<!DOCTYPE svg PUBLIC "-//W3C//DTD SVG 20010904//EN"
 "http://www.w3.org/TR/2001/REC-SVG-20010904/DTD/svg10.dtd">
<svg version="1.0" xmlns="http://www.w3.org/2000/svg"
 width="167.000000pt" height="167.000000pt" viewBox="0 0 167.000000 167.000000"
 preserveAspectRatio="xMidYMid meet">
<metadata>
Created by potrace 1.14, written by Peter Selinger 2001-2017
</metadata>
<g transform="translate(0.000000,167.000000) scale(0.100000,-0.100000)"
fill="#000000" stroke="none">
<path d="M592 1350 c0 -110 -1 -207 -1 -216 -1 -12 -7 -9 -23 12 -32 41 -46
52 -108 81 -104 50 -246 28 -333 -52 -80 -72 -127 -206 -125 -355 3 -228 113
-384 285 -408 124 -17 226 25 295 121 11 15 13 8 11 -43 -2 -33 1 -60 5 -61
51 -5 115 -2 120 6 4 6 7 259 8 563 l0 552 -66 0 -67 0 -1 -200z m-104 -246
c30 -20 71 -83 87 -137 20 -67 17 -230 -5 -290 -40 -104 -108 -157 -205 -157
-134 0 -212 97 -222 275 -7 113 9 191 50 252 68 101 191 125 295 57z"/>
<path d="M1213 1249 c-169 -31 -275 -202 -267 -432 6 -173 72 -295 194 -359
38 -19 60 -23 140 -23 111 0 150 15 216 81 l41 42 -3 -74 c-5 -136 -61 -215
-173 -244 -77 -20 -189 -7 -283 34 l-38 16 0 -64 c0 -68 0 -68 59 -81 12 -3
31 -7 44 -10 12 -3 63 -9 113 -12 202 -13 339 64 391 220 15 45 17 108 21 472
l3 420 -58 0 c-32 0 -63 -3 -69 -7 -7 -5 -11 -28 -9 -59 l3 -51 -30 36 c-65
79 -179 116 -295 95z m219 -144 c69 -46 108 -156 102 -287 -7 -138 -67 -244
-153 -268 -126 -35 -233 19 -277 141 -32 88 -24 264 15 339 59 112 204 147
313 75z"/>
</g>
</svg>
