<?xml version="1.0" encoding="UTF-8" standalone="no"?>
<svg
   xmlns:dc="http://purl.org/dc/elements/1.1/"
   xmlns:cc="http://creativecommons.org/ns#"
   xmlns:rdf="http://www.w3.org/1999/02/22-rdf-syntax-ns#"
   xmlns:svg="http://www.w3.org/2000/svg"
   xmlns="http://www.w3.org/2000/svg"
   xmlns:xlink="http://www.w3.org/1999/xlink"
   xmlns:sodipodi="http://sodipodi.sourceforge.net/DTD/sodipodi-0.dtd"
   xmlns:inkscape="http://www.inkscape.org/namespaces/inkscape"
   width="25"
   height="25"
   viewBox="0 0 25 25"
   version="1.1"
   id="svg19"
   sodipodi:docname="icon-address.svg"
   inkscape:version="1.0.1 (3bc2e813f5, 2020-09-07)">
  <metadata
     id="metadata23">
    <rdf:RDF>
      <cc:Work
         rdf:about="">
        <dc:format>image/svg+xml</dc:format>
        <dc:type
           rdf:resource="http://purl.org/dc/dcmitype/StillImage" />
      </cc:Work>
    </rdf:RDF>
  </metadata>
  <sodipodi:namedview
     pagecolor="#ffffff"
     bordercolor="#666666"
     borderopacity="1"
     objecttolerance="10"
     gridtolerance="10"
     guidetolerance="10"
     inkscape:pageopacity="0"
     inkscape:pageshadow="2"
     inkscape:window-width="1920"
     inkscape:window-height="1017"
     id="namedview21"
     showgrid="false"
     inkscape:zoom="34"
     inkscape:cx="6.8382353"
     inkscape:cy="12.5"
     inkscape:window-x="-8"
     inkscape:window-y="-8"
     inkscape:window-maximized="1"
     inkscape:current-layer="svg19" />
  <title
     id="title2">noun_376938_cc</title>
  <desc
     id="desc4">Created using Figma</desc>
  <g
     id="Canvas"
     transform="translate(-4909 -2758)">
    <g
       id="noun_376938_cc">
      <g
         id="g12">
        <g
           id="g10">
          <g
             id="Group">
            <g
               id="Vector">
              <use
                 xlink:href="#path0_fill"
                 transform="translate(4909 2758)"
                 fill="#219653"
                 id="use6" />
            </g>
          </g>
        </g>
      </g>
    </g>
  </g>
  <defs
     id="defs17">
    <path
       id="path0_fill"
       d="M 12.5 8.88178e-16C 9.18479 1.77636e-15 6.00537 1.31696 3.66117 3.66117C 1.31696 6.00537 2.66454e-15 9.18479 0 12.5C 3.55271e-15 15.8152 1.31696 18.9946 3.66117 21.3388C 6.00537 23.683 9.18479 25 12.5 25C 15.8152 25 18.9946 23.683 21.3388 21.3388C 23.683 18.9946 25 15.8152 25 12.5C 25 9.18479 23.683 6.00537 21.3388 3.66117C 18.9946 1.31696 15.8152 1.44329e-15 12.5 0L 12.5 8.88178e-16ZM 12.5 6C 15.2555 6 17.5 8.2445 17.5 11C 17.5 14.8348 13.8533 18.3537 12.8535 19.3535L 12.5 19.707L 12.1465 19.3535C 11.1454 18.3524 7.5 14.8248 7.5 11C 7.5 8.2445 9.7445 6 12.5 6ZM 12.5 7C 10.2849 7 8.5 8.7849 8.5 11C 8.5 13.9376 11.292 16.99 12.5 18.2285C 13.709 16.9904 16.5 13.9488 16.5 11C 16.5 8.7849 14.7151 7 12.5 7ZM 12.5 9C 13.5986 9 14.5 9.9013 14.5 11C 14.5 12.0986 13.5986 13 12.5 13C 11.4014 13 10.5 12.0986 10.5 11C 10.5 9.9013 11.4014 9 12.5 9ZM 12.5 10C 11.9418 10 11.5 10.4418 11.5 11C 11.5 11.5582 11.9418 12 12.5 12C 13.0582 12 13.5 11.5582 13.5 11C 13.5 10.4418 13.0582 10 12.5 10Z" />
  </defs>
  <path
     style="fill:#ce1b28;stroke-width:0.0294118;fill-opacity:1"
     d="M 11.941176,24.967622 C 7.6913671,24.791246 3.7737897,22.392169 1.6440132,18.661765 0.67935471,16.97212 0.10464056,14.963834 0.03429883,13.036765 -0.033194,11.187744 0.24623968,9.5408515 0.91149932,7.8668265 2.3872147,4.1534129 5.6209626,1.3401561 9.5147059,0.38231321 10.685075,0.09440771 11.777721,-0.01361676 13.036765,0.03410485 c 3.935549,0.14916941 7.629507,2.22518275 9.830421,5.52471865 0.372629,0.5586336 0.612518,0.9757936 0.871036,1.5147059 0.749359,1.5621282 1.1667,3.2246246 1.227479,4.8897056 0.0674,1.846462 -0.214978,3.508331 -0.878963,5.172937 -1.146122,2.873322 -3.370814,5.258124 -6.158677,6.601913 -1.48443,0.715516 -3.215853,1.162708 -4.719394,1.218926 -0.219914,0.0082 -0.479255,0.01878 -0.576314,0.02346 -0.09706,0.0047 -0.408088,-0.0011 -0.691177,-0.01285 z m 1.252504,-5.945563 c 0.745099,-0.75349 1.027981,-1.060577 1.48337,-1.610294 1.633691,-1.97209 2.590916,-3.925341 2.79513,-5.703566 0.05128,-0.446534 0.02068,-1.34789 -0.05817,-1.7134081 C 16.985357,8.0077462 15.492856,6.5193979 13.490128,6.0818291 13.228567,6.0246818 13.104729,6.0165124 12.5,6.0165124 c -0.604729,0 -0.728567,0.00817 -0.990128,0.065317 C 10.506432,6.3010671 9.65934,6.7583071 8.9588235,7.4588235 8.2600815,8.1575656 7.79831,9.0105741 7.5859921,9.9947909 7.5071412,10.360309 7.4765394,11.261665 7.5278203,11.708199 c 0.2273656,1.97982 1.3776562,4.150928 3.3802527,6.380036 0.291694,0.324688 1.565006,1.617647 1.593065,1.617647 0.009,0 0.320628,-0.30772 0.692542,-0.683823 z"
     id="path25" />
  <path
     style="fill:#ce1b28;fill-opacity:1;stroke-width:0.0294118"
     d="M 12.188405,17.878466 C 10.19162,15.735873 9.030684,13.852036 8.6488914,12.134944 8.3690623,10.876428 8.546363,9.7601404 9.1771811,8.8088235 9.7845161,7.8929209 10.745419,7.2641583 11.830623,7.0725546 c 0.303565,-0.053597 0.963165,-0.061054 1.257612,-0.014217 0.453089,0.072072 0.796021,0.1845474 1.222061,0.4008131 1.084181,0.5503513 1.873774,1.5958655 2.101473,2.7825973 0.330054,1.720197 -0.496549,3.882787 -2.38529,6.240488 -0.338991,0.423159 -0.839346,0.995725 -1.310099,1.499171 L 12.5,18.212814 Z m 0.796889,-4.924259 c 0.573809,-0.134838 1.096085,-0.574185 1.35107,-1.136543 0.44078,-0.97212 0.01511,-2.1472448 -0.950334,-2.6235586 C 13.105588,9.0557463 12.853965,9.0008695 12.5,9.0008695 c -0.489642,0 -0.88589,0.1342113 -1.257112,0.4257904 C 10.792189,9.7806651 10.485294,10.418012 10.485294,11 c 0,0.896623 0.658689,1.745502 1.515065,1.952526 0.236352,0.05714 0.745245,0.058 0.984935,0.0017 z"
     id="path850" />
  <path
     style="fill:#ce1b28;fill-opacity:1;stroke-width:0.0294118"
     d="m 12.344889,11.964452 c -0.313085,-0.04641 -0.613724,-0.277171 -0.751634,-0.576932 -0.08943,-0.194384 -0.08943,-0.580656 0,-0.77504 0.297316,-0.6462463 1.148557,-0.7902486 1.623782,-0.274691 0.193943,0.210404 0.252977,0.364934 0.252977,0.662211 0,0.297277 -0.05903,0.451807 -0.252977,0.662211 -0.221569,0.240373 -0.541517,0.351251 -0.872148,0.302241 z"
     id="path852" />
</svg>
