<?xml version="1.0" encoding="UTF-8" standalone="no"?>
<svg
   xmlns:dc="http://purl.org/dc/elements/1.1/"
   xmlns:cc="http://creativecommons.org/ns#"
   xmlns:rdf="http://www.w3.org/1999/02/22-rdf-syntax-ns#"
   xmlns:svg="http://www.w3.org/2000/svg"
   xmlns="http://www.w3.org/2000/svg"
   xmlns:xlink="http://www.w3.org/1999/xlink"
   xmlns:sodipodi="http://sodipodi.sourceforge.net/DTD/sodipodi-0.dtd"
   xmlns:inkscape="http://www.inkscape.org/namespaces/inkscape"
   width="25"
   height="25"
   viewBox="0 0 25 25"
   version="1.1"
   id="svg15"
   sodipodi:docname="icon-website.svg"
   inkscape:version="1.0.1 (3bc2e813f5, 2020-09-07)">
  <metadata
     id="metadata19">
    <rdf:RDF>
      <cc:Work
         rdf:about="">
        <dc:format>image/svg+xml</dc:format>
        <dc:type
           rdf:resource="http://purl.org/dc/dcmitype/StillImage" />
      </cc:Work>
    </rdf:RDF>
  </metadata>
  <sodipodi:namedview
     pagecolor="#ffffff"
     bordercolor="#666666"
     borderopacity="1"
     objecttolerance="10"
     gridtolerance="10"
     guidetolerance="10"
     inkscape:pageopacity="0"
     inkscape:pageshadow="2"
     inkscape:window-width="1920"
     inkscape:window-height="1017"
     id="namedview17"
     showgrid="false"
     inkscape:zoom="34"
     inkscape:cx="6.8382353"
     inkscape:cy="12.5"
     inkscape:window-x="-8"
     inkscape:window-y="-8"
     inkscape:window-maximized="1"
     inkscape:current-layer="svg15" />
  <title
     id="title2">noun_376853_cc</title>
  <desc
     id="desc4">Created using Figma</desc>
  <g
     id="Canvas"
     transform="translate(-4909 -2705)">
    <g
       id="noun_376853_cc">
      <g
         id="Group">
        <g
           id="Vector">
          <use
             xlink:href="#path0_fill"
             transform="translate(4909 2705)"
             fill="#219653"
             id="use6" />
        </g>
      </g>
    </g>
  </g>
  <defs
     id="defs13">
    <path
       id="path0_fill"
       fill-rule="evenodd"
       d="M 12.5 8.88178e-16C 9.18479 1.77636e-15 6.00537 1.31696 3.66117 3.66117C 1.31696 6.00537 2.66454e-15 9.18479 0 12.5C 3.55271e-15 15.8152 1.31696 18.9946 3.66117 21.3388C 6.00537 23.683 9.18479 25 12.5 25C 15.8152 25 18.9946 23.683 21.3388 21.3388C 23.683 18.9946 25 15.8152 25 12.5C 25 9.18479 23.683 6.00537 21.3388 3.66117C 18.9946 1.31696 15.8152 1.44329e-15 12.5 0L 12.5 8.88178e-16ZM 12.5 4.5C 16.9124 4.5 20.5 8.0877 20.5 12.5C 20.5 16.9124 16.9124 20.5 12.5 20.5C 8.08764 20.5 4.5 16.9124 4.5 12.5C 4.5 8.0877 8.08764 4.5 12.5 4.5ZM 12.5 5.5C 12.2687 5.5 12.0153 5.61689 11.7266 5.92969C 11.4378 6.24249 11.1438 6.74051 10.8945 7.37891C 10.6615 7.97581 10.4715 8.6998 10.3301 9.5L 14.6699 9.5C 14.5285 8.6998 14.3385 7.97581 14.1055 7.37891C 13.8562 6.74051 13.5622 6.24249 13.2734 5.92969C 12.9847 5.61689 12.7313 5.5 12.5 5.5ZM 10.5996 5.76562C 8.64111 6.31582 7.03707 7.6929 6.17969 9.5L 9.30664 9.5C 9.45913 8.5741 9.68224 7.73443 9.96289 7.01562C 10.1479 6.54192 10.3605 6.12572 10.5996 5.76562ZM 14.4004 5.76562C 14.6395 6.12572 14.8521 6.54192 15.0371 7.01562C 15.3178 7.73443 15.5409 8.5741 15.6934 9.5L 18.8203 9.5C 17.9629 7.6929 16.3589 6.31582 14.4004 5.76562ZM 5.79297 10.5C 5.60485 11.1338 5.5 11.8044 5.5 12.5C 5.5 13.1963 5.6045 13.8657 5.79297 14.5L 9.1875 14.5C 9.12027 13.8572 9.07227 13.1956 9.07227 12.5C 9.07227 11.8044 9.12027 11.1425 9.1875 10.5L 5.79297 10.5ZM 10.1953 10.5C 10.1238 11.1382 10.0723 11.8008 10.0723 12.5C 10.0723 13.1999 10.1237 13.8609 10.1953 14.5L 14.8047 14.5C 14.8763 13.8609 14.9277 13.1999 14.9277 12.5C 14.9277 11.8008 14.8762 11.1382 14.8047 10.5L 10.1953 10.5ZM 15.8125 10.5C 15.8797 11.1425 15.9277 11.8044 15.9277 12.5C 15.9277 13.1956 15.8797 13.8572 15.8125 14.5L 19.207 14.5C 19.3955 13.8657 19.5 13.1963 19.5 12.5C 19.5 11.8044 19.3952 11.1338 19.207 10.5L 15.8125 10.5ZM 6.18164 15.5C 7.03904 17.3054 8.64083 18.6822 10.5977 19.2324C 10.3591 18.8728 10.1475 18.459 9.96289 17.9863C 9.68224 17.2676 9.45913 16.4264 9.30664 15.5L 6.18164 15.5ZM 10.332 15.5C 10.4734 16.2999 10.6617 17.0267 10.8945 17.623C 11.1438 18.2615 11.4378 18.7595 11.7266 19.0723C 12.0153 19.3851 12.2687 19.5 12.5 19.5C 12.7313 19.5 12.9847 19.3851 13.2734 19.0723C 13.5622 18.7595 13.8562 18.2615 14.1055 17.623C 14.3383 17.0267 14.5266 16.2999 14.668 15.5L 10.332 15.5ZM 15.6934 15.5C 15.5409 16.4264 15.3178 17.2676 15.0371 17.9863C 14.8525 18.459 14.6409 18.8728 14.4023 19.2324C 16.3592 18.6822 17.961 17.3054 18.8184 15.5L 15.6934 15.5Z" />
  </defs>
  <path
     style="fill:#ce1b28;stroke-width:0.0294118;fill-opacity:1"
     d="M 11.941176,24.967622 C 7.6913671,24.791246 3.7737897,22.392169 1.6440132,18.661765 0.67935471,16.97212 0.10464056,14.963834 0.03429883,13.036765 -0.033194,11.187744 0.24623968,9.5408515 0.91149932,7.8668265 2.3872147,4.1534129 5.6209626,1.3401561 9.5147059,0.38231321 10.685075,0.09440771 11.777721,-0.01361676 13.036765,0.03410485 c 3.935549,0.14916941 7.629507,2.22518275 9.830421,5.52471865 0.829901,1.24416 1.403538,2.5409094 1.749946,3.9558824 0.290072,1.1848581 0.395132,2.2464231 0.348569,3.5220591 -0.16557,4.535928 -2.912577,8.712982 -7.03764,10.70132 -1.48443,0.715516 -3.215853,1.162708 -4.719394,1.218926 -0.219914,0.0082 -0.479255,0.01878 -0.576314,0.02346 -0.09706,0.0047 -0.408088,-0.0011 -0.691177,-0.01285 z m 1.744797,-4.538587 c 0.859232,-0.140941 1.595832,-0.373594 2.328733,-0.735523 0.556797,-0.274963 0.790226,-0.416679 1.264706,-0.76781 1.724984,-1.276544 2.837474,-3.157085 3.166237,-5.352173 0.05386,-0.359631 0.05386,-1.787427 0,-2.147058 C 20.23011,9.9873624 19.6459,8.6097524 18.801271,7.5489094 17.840508,6.3422038 16.565051,5.4278929 15.161765,4.9399288 14.266657,4.6286735 13.488125,4.5 12.5,4.5 11.195554,4.5 10.100308,4.7538765 8.9558824,5.3215218 7.5817335,6.0031118 6.4911462,6.9914226 5.6756632,8.2941176 5.4118053,8.7156182 5.0700415,9.4546718 4.8990235,9.9735771 4.6113335,10.84649 4.5,11.5514 4.5,12.5 c 0,0.949236 0.1111744,1.652566 0.3998203,2.529412 0.1689944,0.513369 0.5350426,1.299496 0.7943188,1.705882 0.5573938,0.873653 1.2209927,1.591556 2.0264491,2.19228 1.0718509,0.799407 2.4405798,1.357496 3.7058828,1.511049 0.145588,0.01767 0.297794,0.03765 0.338235,0.04441 0.191015,0.03191 1.646975,-0.009 1.921267,-0.054 z"
     id="path21" />
  <path
     style="fill:#ce1b28;fill-opacity:1;stroke-width:0.0294118"
     d="m 10.207227,14.463416 c -0.02357,-0.07472 -0.07826,-0.801332 -0.102896,-1.36691 -0.02632,-0.604311 0.0019,-1.549235 0.06606,-2.214153 l 0.03549,-0.367647 H 12.5 14.794118 l 0.03565,0.367647 c 0.09676,0.99783 0.09673,2.235306 -5.9e-5,3.235294 l -0.03559,0.367647 -2.287619,0.0075 c -1.815545,0.006 -2.290023,-8.9e-5 -2.299272,-0.02941 z"
     id="path846" />
  <path
     style="fill:#ce1b28;fill-opacity:1;stroke-width:0.0294118"
     d="M 5.7658362,14.345588 C 5.6031045,13.782573 5.5301907,13.211508 5.5301907,12.5 c 0,-0.711508 0.072914,-1.282573 0.2356455,-1.845588 L 5.8104668,10.5 h 1.6797058 1.6797056 l -0.019099,0.213235 c -0.093456,1.043394 -0.1066712,2.258241 -0.034153,3.139706 0.024621,0.299265 0.044849,0.56728 0.044952,0.595588 C 9.1617538,14.496949 9.0624353,14.5 7.4861157,14.5 H 5.8104668 Z"
     id="path848" />
  <path
     style="fill:#ce1b28;fill-opacity:1;stroke-width:0.0294118"
     d="M 10.165824,19.072927 C 8.7242866,18.5697 7.3907872,17.497007 6.5783559,16.187098 6.4434472,15.969581 6.2205882,15.551031 6.2205882,15.515178 c 0,-0.0086 0.6904262,-0.01228 1.5342805,-0.0081 l 1.5342804,0.0076 0.093753,0.470588 c 0.2364997,1.187101 0.6193469,2.29709 1.0251759,2.97229 0.07531,0.125293 0.133416,0.23106 0.129129,0.235037 -0.0043,0.004 -0.17141,-0.04988 -0.371383,-0.119694 z"
     id="path850" />
  <path
     style="fill:#ce1b28;fill-opacity:1;stroke-width:0.0294118"
     d="m 6.2205882,9.4675271 c 0,-0.050601 0.2786797,-0.53761 0.4863242,-0.84988 C 7.4776762,7.4585196 8.6540836,6.5076777 9.9338653,6.0094334 10.210767,5.9016301 10.544118,5.7920095 10.544118,5.8087551 c 0,0.00508 -0.06825,0.1252037 -0.151666,0.266931 C 9.9815018,6.7739078 9.6191862,7.8286873 9.3829021,9.0147059 l -0.093753,0.4705882 -1.5342804,0.00762 c -1.1189245,0.00555 -1.5342805,-0.00132 -1.5342805,-0.025382 z"
     id="path852" />
  <path
     style="fill:#ce1b28;fill-opacity:1;stroke-width:0.0294118"
     d="M 10.387359,9.2720588 C 10.663732,7.7741799 11.203406,6.4867546 11.809186,5.8802069 12.05295,5.6361336 12.268804,5.5252101 12.5,5.5252101 c 0.714492,0 1.505146,1.229308 1.95113,3.0336134 0.06598,0.2669118 0.138767,0.5878677 0.161761,0.7132353 L 14.654698,9.5 H 12.5 10.345302 Z"
     id="path854" />
  <path
     style="fill:#ce1b28;fill-opacity:1;stroke-width:0.0294118"
     d="m 15.706692,9.4632353 c -0.0066,-0.020221 -0.04002,-0.1889706 -0.07422,-0.375 C 15.428606,7.9790531 15.018721,6.7742871 14.607548,6.0756861 14.524132,5.9339588 14.455882,5.8136934 14.455882,5.8084297 c 0,-0.019721 0.231267,0.055399 0.551567,0.1791594 1.333222,0.5151418 2.500786,1.4497428 3.285639,2.630058 0.207176,0.3115667 0.486324,0.7992423 0.486324,0.8496176 0,0.050191 -3.056262,0.046183 -3.07272,-0.00403 z"
     id="path856" />
  <path
     style="fill:#ce1b28;fill-opacity:1;stroke-width:0.0294118"
     d="m 15.838423,14.448529 c 1.02e-4,-0.02831 0.02044,-0.296323 0.0452,-0.595588 0.05851,-0.707289 0.05851,-1.998593 0,-2.705882 -0.02476,-0.299265 -0.0451,-0.56728 -0.0452,-0.595588 C 15.838246,10.503051 15.937565,10.5 17.513884,10.5 h 1.675649 l 0.04463,0.154412 c 0.162732,0.563015 0.235645,1.13408 0.235645,1.845588 0,0.711508 -0.07291,1.282573 -0.235645,1.845588 L 19.189533,14.5 h -1.675649 c -1.576319,0 -1.675638,-0.0031 -1.675461,-0.05147 z"
     id="path858" />
  <path
     style="fill:#ce1b28;fill-opacity:1;stroke-width:0.0294118"
     d="m 14.455882,19.187236 c 0,-0.009 0.02446,-0.05152 0.05435,-0.09446 0.02989,-0.04294 0.114804,-0.19057 0.188697,-0.32807 0.379706,-0.706552 0.718301,-1.739228 0.930607,-2.838235 l 0.07954,-0.411765 1.535167,-0.0076 c 0.844342,-0.0042 1.535168,-5.5e-4 1.535168,0.0081 0,0.03585 -0.222859,0.454403 -0.357768,0.67192 -0.356005,0.573999 -0.931474,1.23118 -1.480468,1.690684 -0.580484,0.485861 -1.427215,0.963725 -2.139705,1.20757 -0.190074,0.06505 -0.345589,0.1109 -0.345589,0.101884 z"
     id="path860" />
  <path
     style="fill:#ce1b28;fill-opacity:1;stroke-width:0.0294118"
     d="m 12.370277,19.465459 c -0.41309,-0.07269 -0.872952,-0.586447 -1.266515,-1.414944 -0.308576,-0.64959 -0.525208,-1.364093 -0.730937,-2.410809 L 10.345366,15.5 h 2.155049 2.155049 l -0.09935,0.475056 c -0.17874,0.85464 -0.37759,1.479836 -0.66012,2.075459 -0.478939,1.009685 -1.013176,1.505136 -1.525714,1.414944 z"
     id="path862" />
</svg>
